G04*
G04 #@! TF.GenerationSoftware,Altium Limited,Altium Designer,25.8.1 (18)*
G04*
G04 Layer_Color=8421504*
%FSLAX44Y44*%
%MOMM*%
G71*
G04*
G04 #@! TF.SameCoordinates,917771B8-D361-41E7-A195-68F38E2BC4F3*
G04*
G04*
G04 #@! TF.FilePolarity,Positive*
G04*
G01*
G75*
%ADD17R,0.8500X0.8500*%
%ADD18R,0.8000X0.4000*%
%ADD19R,0.8500X0.8500*%
%ADD20R,1.2700X1.2700*%
%ADD21R,0.5500X0.5500*%
%ADD22R,6.7000X6.7000*%
%ADD23R,1.6256X2.3876*%
%ADD24R,3.0000X1.6000*%
%ADD25R,0.5500X0.5500*%
%ADD26R,1.5500X1.0000*%
%ADD27R,1.4500X1.6000*%
%ADD28R,0.7500X0.9400*%
%ADD29R,1.3000X1.9000*%
%ADD30R,0.9400X0.7500*%
%ADD31R,1.0000X0.9500*%
%ADD32R,1.4750X0.3000*%
%ADD33R,0.3000X1.4750*%
%ADD34R,0.9200X1.1300*%
%ADD35R,1.0160X1.5240*%
%ADD36R,2.8500X1.0000*%
%ADD37R,6.1000X4.5000*%
%ADD38R,1.5240X1.0160*%
%ADD39R,2.1000X1.5500*%
%ADD40R,1.1300X0.9200*%
D17*
X412750Y1100960D02*
D03*
Y1116460D02*
D03*
X883920Y981710D02*
D03*
Y997210D02*
D03*
X646430Y793750D02*
D03*
Y778250D02*
D03*
X618490Y694820D02*
D03*
Y679320D02*
D03*
X688340Y623440D02*
D03*
Y638940D02*
D03*
X767080Y622040D02*
D03*
Y637540D02*
D03*
X534670Y754510D02*
D03*
Y739010D02*
D03*
Y692020D02*
D03*
Y707520D02*
D03*
D18*
X398780Y1107440D02*
D03*
X368780D02*
D03*
Y1116940D02*
D03*
X398780Y1126440D02*
D03*
Y1116940D02*
D03*
X368780Y1126440D02*
D03*
D19*
X375790Y1080770D02*
D03*
X391290D02*
D03*
X392690Y1144270D02*
D03*
X377190D02*
D03*
X392560Y1158240D02*
D03*
X377060D02*
D03*
X660270Y808990D02*
D03*
X675770D02*
D03*
X825630Y791210D02*
D03*
X810130D02*
D03*
D20*
X372110Y1059180D02*
D03*
X402590D02*
D03*
X353060Y887730D02*
D03*
X383540D02*
D03*
D21*
X344678Y996950D02*
D03*
X356362D02*
D03*
X1155446Y591820D02*
D03*
X1173988Y1151890D02*
D03*
X1163066Y974090D02*
D03*
X1152398Y775970D02*
D03*
X1164082D02*
D03*
X1167130Y591820D02*
D03*
X1174750Y974090D02*
D03*
X1185672Y1151890D02*
D03*
D22*
X430840Y942340D02*
D03*
D23*
X383780Y1116940D02*
D03*
D24*
X364340Y919340D02*
D03*
Y965340D02*
D03*
D25*
X883920Y969902D02*
D03*
Y958218D02*
D03*
X521970Y795528D02*
D03*
Y807212D02*
D03*
X537210D02*
D03*
Y795528D02*
D03*
Y844042D02*
D03*
Y832358D02*
D03*
X521970Y833120D02*
D03*
Y844804D02*
D03*
X659130Y992632D02*
D03*
Y980948D02*
D03*
D26*
X804330Y961900D02*
D03*
X856830D02*
D03*
Y993900D02*
D03*
X804330D02*
D03*
X583350Y995170D02*
D03*
X635850D02*
D03*
Y963170D02*
D03*
X583350D02*
D03*
D27*
X380220Y1003300D02*
D03*
X409720D02*
D03*
X1421130Y984250D02*
D03*
X1450630D02*
D03*
X1427970Y1184910D02*
D03*
X1457470D02*
D03*
X1443500Y795020D02*
D03*
X1414000D02*
D03*
X1450720Y599440D02*
D03*
X1421220D02*
D03*
D28*
X823580Y765810D02*
D03*
X837580D02*
D03*
D29*
X488950Y831850D02*
D03*
X433950D02*
D03*
Y799850D02*
D03*
X488950D02*
D03*
D30*
X749300Y636920D02*
D03*
Y622920D02*
D03*
D31*
X598170Y695070D02*
D03*
Y679070D02*
D03*
D32*
X665250Y765290D02*
D03*
Y760290D02*
D03*
Y755290D02*
D03*
Y750290D02*
D03*
Y745290D02*
D03*
Y740290D02*
D03*
Y735290D02*
D03*
Y730290D02*
D03*
Y725290D02*
D03*
Y720290D02*
D03*
Y710290D02*
D03*
Y705290D02*
D03*
Y700290D02*
D03*
Y695290D02*
D03*
X780010Y705290D02*
D03*
Y710290D02*
D03*
Y715290D02*
D03*
Y720290D02*
D03*
Y725290D02*
D03*
Y730290D02*
D03*
Y735290D02*
D03*
Y750290D02*
D03*
Y755290D02*
D03*
Y760290D02*
D03*
Y765290D02*
D03*
Y695290D02*
D03*
Y700290D02*
D03*
Y745290D02*
D03*
Y740290D02*
D03*
X665250Y715290D02*
D03*
Y770290D02*
D03*
X780010D02*
D03*
D33*
X685130Y675410D02*
D03*
X700130D02*
D03*
X705130D02*
D03*
X710130D02*
D03*
X715130D02*
D03*
X720130D02*
D03*
X725130D02*
D03*
X730130D02*
D03*
X735130D02*
D03*
X740130D02*
D03*
X745130D02*
D03*
X755130D02*
D03*
X760130Y790170D02*
D03*
X755130D02*
D03*
X745130D02*
D03*
X740130D02*
D03*
X735130D02*
D03*
X730130D02*
D03*
X720130D02*
D03*
X715130D02*
D03*
X710130D02*
D03*
X705130D02*
D03*
X700130D02*
D03*
X695130D02*
D03*
X750130Y675410D02*
D03*
X690130Y790170D02*
D03*
Y675410D02*
D03*
X750130Y790170D02*
D03*
X685130D02*
D03*
X695130Y675410D02*
D03*
X760130D02*
D03*
X725130Y790170D02*
D03*
D34*
X1297660Y1069340D02*
D03*
X1262660D02*
D03*
X1252500Y693420D02*
D03*
X1287500D02*
D03*
X1249960Y500380D02*
D03*
X1284960D02*
D03*
X1301750Y890350D02*
D03*
X1266750D02*
D03*
D35*
X1323340Y668020D02*
D03*
X1303020D02*
D03*
X1303022Y693420D02*
D03*
X1323342D02*
D03*
X1244600Y781050D02*
D03*
X1224280D02*
D03*
X1316590Y500380D02*
D03*
X1336910D02*
D03*
X1242060Y598170D02*
D03*
X1221740D02*
D03*
X1336040Y471170D02*
D03*
X1315720D02*
D03*
X1320800Y886540D02*
D03*
X1341120D02*
D03*
Y861140D02*
D03*
X1320800D02*
D03*
X1257300Y982980D02*
D03*
X1236980D02*
D03*
X1318262Y1069340D02*
D03*
X1338582D02*
D03*
X1338580Y1042670D02*
D03*
X1318260D02*
D03*
X1280160Y1167130D02*
D03*
X1300480D02*
D03*
D36*
X1368650Y721320D02*
D03*
Y767120D02*
D03*
X1369520Y532090D02*
D03*
Y577890D02*
D03*
X1375000Y916900D02*
D03*
Y962700D02*
D03*
X1378810Y1097253D02*
D03*
Y1143053D02*
D03*
D37*
X1302150Y744220D02*
D03*
X1303020Y554990D02*
D03*
X1308500Y939800D02*
D03*
X1312310Y1120153D02*
D03*
D38*
X1414780Y734060D02*
D03*
Y754380D02*
D03*
X1419460Y547370D02*
D03*
Y567690D02*
D03*
X1416050Y928370D02*
D03*
Y948690D02*
D03*
X1419860Y1123950D02*
D03*
Y1144270D02*
D03*
D39*
X1169850Y753110D02*
D03*
X1255850Y727710D02*
D03*
Y753110D02*
D03*
X1169850Y727710D02*
D03*
X1167310Y567690D02*
D03*
X1253310Y542290D02*
D03*
Y567690D02*
D03*
X1167310Y542290D02*
D03*
X1173660Y925830D02*
D03*
X1176200Y1102360D02*
D03*
X1259660Y951230D02*
D03*
X1262200Y1127760D02*
D03*
X1259660Y925830D02*
D03*
X1173660Y951230D02*
D03*
X1262200Y1102360D02*
D03*
X1176200Y1127760D02*
D03*
D40*
X1447800Y762990D02*
D03*
Y727990D02*
D03*
X1451210Y573760D02*
D03*
Y538760D02*
D03*
X1454150Y1154150D02*
D03*
X1450340Y953490D02*
D03*
X1454150Y1119150D02*
D03*
X1450340Y918490D02*
D03*
M02*
