G04*
G04 #@! TF.GenerationSoftware,Altium Limited,Altium Designer,25.8.1 (18)*
G04*
G04 Layer_Color=16711935*
%FSLAX44Y44*%
%MOMM*%
G71*
G04*
G04 #@! TF.SameCoordinates,917771B8-D361-41E7-A195-68F38E2BC4F3*
G04*
G04*
G04 #@! TF.FilePolarity,Negative*
G04*
G01*
G75*
%ADD64R,1.7032X1.7032*%
%ADD65C,1.7032*%
%ADD66C,1.7780*%
%ADD68R,1.7780X1.7780*%
%ADD69R,1.7032X1.7032*%
%ADD70C,2.3032*%
%ADD71R,2.3032X2.3032*%
%ADD72C,5.2032*%
%ADD73C,0.6602*%
%ADD91O,2.2032X1.4032*%
D64*
X591820Y554990D02*
D03*
X537210Y1153160D02*
D03*
X746760Y1178560D02*
D03*
X640080Y1156970D02*
D03*
D65*
X617220Y554990D02*
D03*
X642620D02*
D03*
X668020D02*
D03*
X693420D02*
D03*
X718820D02*
D03*
X690836Y1036745D02*
D03*
Y1011345D02*
D03*
Y985945D02*
D03*
Y960545D02*
D03*
Y935145D02*
D03*
X511810Y1153160D02*
D03*
X820420Y1158240D02*
D03*
Y1132840D02*
D03*
Y1107440D02*
D03*
Y1082040D02*
D03*
Y1056640D02*
D03*
X721360Y1178560D02*
D03*
X614680Y1156970D02*
D03*
D66*
X881156Y800500D02*
D03*
X435231Y709832D02*
D03*
Y735232D02*
D03*
Y684432D02*
D03*
X881156Y775100D02*
D03*
Y825900D02*
D03*
D68*
X435231Y760632D02*
D03*
X881156Y749700D02*
D03*
D69*
X690836Y1062145D02*
D03*
X820420Y1183640D02*
D03*
D70*
X481330Y555460D02*
D03*
Y505460D02*
D03*
X1488440Y730250D02*
D03*
Y532600D02*
D03*
Y680250D02*
D03*
X1490980Y1073950D02*
D03*
Y1123950D02*
D03*
Y879640D02*
D03*
Y929640D02*
D03*
X1488440Y482600D02*
D03*
D71*
X481330Y455460D02*
D03*
X1488440Y780250D02*
D03*
X1490980Y1173950D02*
D03*
Y979640D02*
D03*
X1488440Y582600D02*
D03*
D72*
X457200Y410210D02*
D03*
X1504950D02*
D03*
X340360Y1248410D02*
D03*
X334010Y632460D02*
D03*
X1508760Y1247140D02*
D03*
D73*
X1425000Y1250000D02*
D03*
X1375000D02*
D03*
X1325000D02*
D03*
X1275000D02*
D03*
X1225000D02*
D03*
X1200000Y1200000D02*
D03*
Y1100000D02*
D03*
Y1000000D02*
D03*
Y900000D02*
D03*
Y800000D02*
D03*
Y700000D02*
D03*
Y600000D02*
D03*
X1175000Y1250000D02*
D03*
X1150000Y1200000D02*
D03*
Y1100000D02*
D03*
X1175000Y1050000D02*
D03*
X1150000Y1000000D02*
D03*
Y900000D02*
D03*
X1175000Y850000D02*
D03*
X1150000Y800000D02*
D03*
Y700000D02*
D03*
X1175000Y650000D02*
D03*
X1150000Y600000D02*
D03*
X1125000Y1250000D02*
D03*
X1100000Y1200000D02*
D03*
X1125000Y1150000D02*
D03*
X1100000Y1100000D02*
D03*
X1125000Y1050000D02*
D03*
X1100000Y1000000D02*
D03*
X1125000Y950000D02*
D03*
X1100000Y900000D02*
D03*
X1125000Y850000D02*
D03*
X1100000Y800000D02*
D03*
Y700000D02*
D03*
X1125000Y650000D02*
D03*
X1100000Y600000D02*
D03*
X1125000Y550000D02*
D03*
X1075000Y1250000D02*
D03*
X1050000Y1200000D02*
D03*
X1075000Y1150000D02*
D03*
X1050000Y1100000D02*
D03*
X1075000Y1050000D02*
D03*
X1050000Y1000000D02*
D03*
X1075000Y950000D02*
D03*
X1050000Y900000D02*
D03*
Y700000D02*
D03*
X1075000Y650000D02*
D03*
X1050000Y600000D02*
D03*
X1075000Y550000D02*
D03*
X1025000Y1250000D02*
D03*
X1000000Y1200000D02*
D03*
X1025000Y1150000D02*
D03*
X1000000Y1100000D02*
D03*
X1025000Y1050000D02*
D03*
X1000000Y1000000D02*
D03*
X1025000Y950000D02*
D03*
X1000000Y900000D02*
D03*
X1025000Y850000D02*
D03*
X1000000Y800000D02*
D03*
X1025000Y750000D02*
D03*
X1000000Y700000D02*
D03*
X1025000Y650000D02*
D03*
X1000000Y600000D02*
D03*
X1025000Y550000D02*
D03*
X975000Y1250000D02*
D03*
X950000Y1200000D02*
D03*
X975000Y1150000D02*
D03*
X950000Y1100000D02*
D03*
X975000Y1050000D02*
D03*
Y950000D02*
D03*
X950000Y900000D02*
D03*
X975000Y850000D02*
D03*
X950000Y800000D02*
D03*
X975000Y750000D02*
D03*
X950000Y700000D02*
D03*
X975000Y650000D02*
D03*
Y550000D02*
D03*
X925000Y1250000D02*
D03*
X900000Y1200000D02*
D03*
X925000Y1150000D02*
D03*
X900000Y1100000D02*
D03*
X925000Y1050000D02*
D03*
Y950000D02*
D03*
X900000Y900000D02*
D03*
Y800000D02*
D03*
X925000Y750000D02*
D03*
X900000Y700000D02*
D03*
X925000Y650000D02*
D03*
X900000Y600000D02*
D03*
X925000Y550000D02*
D03*
X850000Y1200000D02*
D03*
X875000Y1150000D02*
D03*
X850000Y1100000D02*
D03*
X875000Y1050000D02*
D03*
X850000Y900000D02*
D03*
X875000Y850000D02*
D03*
Y650000D02*
D03*
X850000Y600000D02*
D03*
X875000Y550000D02*
D03*
X825000Y950000D02*
D03*
Y850000D02*
D03*
X800000Y700000D02*
D03*
X825000Y650000D02*
D03*
X800000Y600000D02*
D03*
X825000Y550000D02*
D03*
X750000Y1200000D02*
D03*
X775000Y1150000D02*
D03*
X750000Y1100000D02*
D03*
X775000Y1050000D02*
D03*
X750000Y1000000D02*
D03*
X775000Y950000D02*
D03*
X750000Y700000D02*
D03*
Y600000D02*
D03*
X775000Y550000D02*
D03*
X725000Y1250000D02*
D03*
X700000Y1100000D02*
D03*
Y900000D02*
D03*
X725000Y750000D02*
D03*
X700000Y700000D02*
D03*
X675000Y1250000D02*
D03*
Y1150000D02*
D03*
Y1050000D02*
D03*
Y950000D02*
D03*
Y850000D02*
D03*
X650000Y700000D02*
D03*
Y600000D02*
D03*
X625000Y1250000D02*
D03*
X600000Y1100000D02*
D03*
Y1000000D02*
D03*
X625000Y950000D02*
D03*
X600000Y900000D02*
D03*
X625000Y850000D02*
D03*
X600000Y600000D02*
D03*
X575000Y1250000D02*
D03*
Y1150000D02*
D03*
X550000Y1100000D02*
D03*
Y1000000D02*
D03*
X575000Y950000D02*
D03*
X550000Y900000D02*
D03*
X575000Y850000D02*
D03*
X550000Y800000D02*
D03*
X575000Y650000D02*
D03*
X550000Y600000D02*
D03*
X575000Y550000D02*
D03*
X525000Y1250000D02*
D03*
X500000Y1100000D02*
D03*
X525000Y1050000D02*
D03*
X500000Y1000000D02*
D03*
X525000Y950000D02*
D03*
X500000Y900000D02*
D03*
X525000Y650000D02*
D03*
X500000Y600000D02*
D03*
X525000Y450000D02*
D03*
X475000Y1150000D02*
D03*
Y1050000D02*
D03*
X450000Y1000000D02*
D03*
Y900000D02*
D03*
X475000Y850000D02*
D03*
X450000Y800000D02*
D03*
X475000Y750000D02*
D03*
Y650000D02*
D03*
X450000Y500000D02*
D03*
X400000Y1200000D02*
D03*
X425000Y1150000D02*
D03*
Y1050000D02*
D03*
Y850000D02*
D03*
X400000Y800000D02*
D03*
Y700000D02*
D03*
X425000Y550000D02*
D03*
Y450000D02*
D03*
X350000Y1200000D02*
D03*
X300000D02*
D03*
X325000Y1150000D02*
D03*
X300000Y1100000D02*
D03*
X325000Y1050000D02*
D03*
X300000Y1000000D02*
D03*
X325000Y950000D02*
D03*
X300000Y900000D02*
D03*
Y800000D02*
D03*
Y700000D02*
D03*
Y600000D02*
D03*
X1440000Y1170000D02*
D03*
Y810000D02*
D03*
Y630000D02*
D03*
Y450000D02*
D03*
X1350000Y1170000D02*
D03*
X1395000Y1080000D02*
D03*
X1350000Y990000D02*
D03*
X1395000Y900000D02*
D03*
X1350000Y810000D02*
D03*
X1395000Y720000D02*
D03*
X1350000Y630000D02*
D03*
Y450000D02*
D03*
X1260000Y1170000D02*
D03*
Y810000D02*
D03*
Y630000D02*
D03*
Y450000D02*
D03*
X1170000D02*
D03*
X1080000D02*
D03*
X990000D02*
D03*
X900000D02*
D03*
X810000D02*
D03*
X720000D02*
D03*
X630000D02*
D03*
X495000Y540000D02*
D03*
X360000Y810000D02*
D03*
X598170Y679070D02*
D03*
X767080Y637540D02*
D03*
X688340Y638940D02*
D03*
X883920Y958218D02*
D03*
X675770Y808990D02*
D03*
X810130Y791210D02*
D03*
X377190Y1144270D02*
D03*
X377060Y1158240D02*
D03*
D91*
X499110Y747630D02*
D03*
Y697630D02*
D03*
M02*
